<mxfile host="app.diagrams.net" modified="2022-11-18T23:01:15.770Z" agent="5.0 (Macintosh; Intel Mac OS X 10_15_7) AppleWebKit/605.1.15 (KHTML, like Gecko) Version/16.1 Safari/605.1.15" etag="3jWc1pDsjfmM5YSd8vvu" version="20.5.3" type="github">
  <diagram id="E5zAWRpKRQtCYMCSBuOu" name="Seite-1">
    <mxGraphModel dx="830" dy="568" grid="1" gridSize="10" guides="1" tooltips="1" connect="1" arrows="1" fold="1" page="1" pageScale="1" pageWidth="827" pageHeight="1169" math="0" shadow="0">
      <root>
        <mxCell id="0" />
        <mxCell id="1" parent="0" />
        <mxCell id="TTG8XsaPFoLmgTVy-96G-10" value="" style="rounded=0;whiteSpace=wrap;html=1;strokeColor=none;fillColor=#E3E3E3;fontColor=#333333;" vertex="1" parent="1">
          <mxGeometry x="190" y="230" width="450" height="220" as="geometry" />
        </mxCell>
        <mxCell id="TTG8XsaPFoLmgTVy-96G-1" value="" style="sketch=0;points=[[0,0,0],[0.25,0,0],[0.5,0,0],[0.75,0,0],[1,0,0],[0,1,0],[0.25,1,0],[0.5,1,0],[0.75,1,0],[1,1,0],[0,0.25,0],[0,0.5,0],[0,0.75,0],[1,0.25,0],[1,0.5,0],[1,0.75,0]];outlineConnect=0;fontColor=#232F3E;gradientColor=#007A00;gradientDirection=north;fillColor=#007A00;strokeColor=#ffffff;dashed=0;verticalLabelPosition=bottom;verticalAlign=top;align=center;html=1;fontSize=12;fontStyle=0;aspect=fixed;shape=mxgraph.aws4.resourceIcon;resIcon=mxgraph.aws4.blockchain;" vertex="1" parent="1">
          <mxGeometry x="440" y="360" width="78" height="78" as="geometry" />
        </mxCell>
        <mxCell id="TTG8XsaPFoLmgTVy-96G-2" value="" style="sketch=0;outlineConnect=0;fontColor=#232F3E;gradientColor=none;fillColor=#007A00;strokeColor=none;dashed=0;verticalLabelPosition=bottom;verticalAlign=top;align=center;html=1;fontSize=12;fontStyle=0;aspect=fixed;pointerEvents=1;shape=mxgraph.aws4.mesh;" vertex="1" parent="1">
          <mxGeometry x="320" y="361" width="78" height="77" as="geometry" />
        </mxCell>
        <mxCell id="TTG8XsaPFoLmgTVy-96G-3" value="" style="sketch=0;outlineConnect=0;fontColor=#232F3E;gradientColor=none;fillColor=#007A00;strokeColor=none;dashed=0;verticalLabelPosition=bottom;verticalAlign=top;align=center;html=1;fontSize=12;fontStyle=0;aspect=fixed;pointerEvents=1;shape=mxgraph.aws4.long_term_security_credential;" vertex="1" parent="1">
          <mxGeometry x="362" y="250" width="78" height="69" as="geometry" />
        </mxCell>
        <mxCell id="TTG8XsaPFoLmgTVy-96G-4" value="" style="sketch=0;outlineConnect=0;fontColor=#232F3E;gradientColor=none;fillColor=#007A00;strokeColor=none;dashed=0;verticalLabelPosition=bottom;verticalAlign=top;align=center;html=1;fontSize=12;fontStyle=0;aspect=fixed;pointerEvents=1;shape=mxgraph.aws4.organizations_account;" vertex="1" parent="1">
          <mxGeometry x="210" y="361" width="74" height="78" as="geometry" />
        </mxCell>
        <mxCell id="TTG8XsaPFoLmgTVy-96G-6" value="" style="sketch=0;outlineConnect=0;fontColor=#232F3E;gradientColor=none;fillColor=#007A00;strokeColor=none;dashed=0;verticalLabelPosition=bottom;verticalAlign=top;align=center;html=1;fontSize=12;fontStyle=0;aspect=fixed;pointerEvents=1;shape=mxgraph.aws4.organizations_account;" vertex="1" parent="1">
          <mxGeometry x="560" y="361" width="74" height="78" as="geometry" />
        </mxCell>
        <mxCell id="TTG8XsaPFoLmgTVy-96G-7" value="" style="sketch=0;outlineConnect=0;fontColor=#232F3E;gradientColor=none;fillColor=#007A00;strokeColor=none;dashed=0;verticalLabelPosition=bottom;verticalAlign=top;align=center;html=1;fontSize=12;fontStyle=0;aspect=fixed;pointerEvents=1;shape=mxgraph.aws4.data_encryption_key;" vertex="1" parent="1">
          <mxGeometry x="550" y="246" width="62" height="78" as="geometry" />
        </mxCell>
        <mxCell id="TTG8XsaPFoLmgTVy-96G-8" value="" style="sketch=0;outlineConnect=0;fontColor=#232F3E;gradientColor=none;fillColor=#007A00;strokeColor=none;dashed=0;verticalLabelPosition=bottom;verticalAlign=top;align=center;html=1;fontSize=12;fontStyle=0;aspect=fixed;pointerEvents=1;shape=mxgraph.aws4.data_encryption_key;" vertex="1" parent="1">
          <mxGeometry x="200" y="250" width="62" height="78" as="geometry" />
        </mxCell>
      </root>
    </mxGraphModel>
  </diagram>
</mxfile>
